<mxfile host="app.diagrams.net" modified="2023-04-24T09:10:33.869Z" agent="Mozilla/5.0 (Macintosh; Intel Mac OS X 10_15_7) AppleWebKit/537.36 (KHTML, like Gecko) Chrome/111.0.0.0 Safari/537.36" version="21.2.1" etag="cRqnrypsLLZ_bHbJBVve" type="github">
  <diagram name="第 1 页" id="9J6kJV9tap66pSNDT5p9">
    <mxGraphModel>
      <root>
        <mxCell id="0" />
        <mxCell id="1" parent="0" />
      </root>
    </mxGraphModel>
  </diagram>
</mxfile>
